<?xml version="1.0" encoding="utf-8"?>
<!-- Generator: Adobe Illustrator 19.0.0, SVG Export Plug-In . SVG Version: 6.00 Build 0)  -->
<svg version="1.1" id="Layer_1" xmlns="http://www.w3.org/2000/svg" xmlns:xlink="http://www.w3.org/1999/xlink" x="0px" y="0px"
	 viewBox="0 0 290 300" style="enable-background:new 0 0 290 300;" xml:space="preserve">
<style type="text/css">
	.st0{fill:#FFB301;}
	.st1{fill:#FFFFFF;}
</style>
<path id="XMLID_117_" class="st0" d="M147.6,141.8l51.1-30.6c1.9-1.2,1.9-4,0-5.1l-52.7-31.5c-0.9-0.6-2.1-0.6-3.1,0l-51.1,30.6
	c-1.9,1.2-1.9,4,0,5.1l52.7,31.5C145.5,142.3,146.7,142.3,147.6,141.8z"/>
<path id="XMLID_116_" class="st0" d="M201.5,123.4l-48,28.9c-0.9,0.5-1.5,1.5-1.5,2.6v59.5c0,2.3,2.5,3.8,4.5,2.6l48-28.9
	c0.9-0.5,1.5-1.5,1.5-2.6V126C206,123.7,203.5,122.2,201.5,123.4z"/>
<path id="XMLID_115_" class="st1" d="M151,2.4v59.4c0,1.1,0.6,2,1.5,2.6l49,29.4c2,1.2,4.5-0.2,4.5-2.6v-54c0-1.1-0.6-2-1.5-2.6
	L151,2.4z"/>
<path id="XMLID_114_" class="st0" d="M84,124.7V186c0,1.1,0.6,2,1.5,2.6l50,29.9c2,1.2,4.5-0.2,4.5-2.6v-61.3c0-1.1-0.6-2-1.5-2.6
	l-50-29.9C86.5,120.9,84,122.4,84,124.7z"/>
<path id="XMLID_113_" class="st1" d="M67.5,119.9l-46,27.4c-0.9,0.5-1.5,1.5-1.5,2.6v61.7c0,2.3,2.5,3.8,4.5,2.6l46-27.4
	c0.9-0.5,1.5-1.5,1.5-2.6v-61.7C72,120.1,69.5,118.7,67.5,119.9z"/>
<path id="XMLID_112_" class="st1" d="M88.5,93.3l49-29.4c0.9-0.5,1.5-1.5,1.5-2.6V2.4L85.5,34.7c-0.9,0.5-1.5,1.5-1.5,2.6v53.5
	C84,93,86.5,94.5,88.5,93.3z"/>
<path id="XMLID_111_" class="st1" d="M72,101.5V48c0-2.3-2.5-3.8-4.5-2.6l-46,27.5c-0.9,0.5-1.5,1.5-1.5,2.6v53.4
	c0,2.3,2.5,3.8,4.5,2.6l46-27.4C71.4,103.5,72,102.5,72,101.5z"/>
<path id="XMLID_110_" class="st1" d="M128.6,228.5l-50.8-30.4c-0.9-0.6-2.1-0.6-3.1,0l-44.5,26.6c-1.9,1.2-1.9,4,0,5.1l50.7,30.4
	c0.9,0.6,2.1,0.6,3.1,0l44.6-26.7C130.5,232.5,130.5,229.6,128.6,228.5z"/>
<path id="XMLID_109_" class="st1" d="M143,239l-44.7,26.7c-1.9,1.2-1.9,4,0,5.1l45.1,27c1,0.6,2.1,0.6,3.1,0l44.7-26.8
	c1.9-1.2,1.9-4,0-5.1l-45.1-27C145.2,238.4,144,238.4,143,239z"/>
<path id="XMLID_108_" class="st1" d="M219.5,104.6l46,27.4c2,1.2,4.5-0.3,4.5-2.6V75.5c0-1.1-0.6-2-1.5-2.6l-46-27.5
	c-2-1.2-4.5,0.2-4.5,2.6v54C218,103.1,218.6,104.1,219.5,104.6z"/>
<path id="XMLID_107_" class="st1" d="M218,123v60.8c0,1.1,0.6,2,1.5,2.6l46,27.4c2,1.2,4.5-0.3,4.5-2.6v-60.8c0-1.1-0.6-2-1.5-2.6
	l-46-27.4C220.5,119.2,218,120.7,218,123z"/>
<path id="XMLID_1_" class="st1" d="M260.2,229.7c1.9-1.2,1.9-4,0-5.1l-46.9-28.1l0.2,0.4l-52.9,31.6c-1.9,1.2-1.9,4,0,5.1l45,26.9
	c0.9,0.6,2.1,0.6,3.1,0L260.2,229.7z"/>
</svg>
