<?xml version="1.0" encoding="utf-8"?>
<!-- Generator: Adobe Illustrator 19.0.0, SVG Export Plug-In . SVG Version: 6.00 Build 0)  -->
<svg version="1.1" id="Layer_1" xmlns="http://www.w3.org/2000/svg" xmlns:xlink="http://www.w3.org/1999/xlink" x="0px" y="0px"
	 viewBox="-69 171 850 220" style="enable-background:new -69 171 850 220;" xml:space="preserve">
<style type="text/css">
	.st0{fill:#FFB301;}
	.st1{fill:#FFFFFF;}
</style>
<path id="XMLID_117_" class="st0" d="M34,275.1l35.8-20.7c1.3-0.8,1.3-2.7,0-3.4l-37-21.3c-0.6-0.4-1.5-0.4-2.2,0l-35.8,20.7
	c-1.3,0.8-1.3,2.7,0,3.4l37,21.3C32.4,275.5,33.3,275.5,34,275.1z"/>
<path id="XMLID_116_" class="st0" d="M71.6,262.7L38,282.2c-0.6,0.3-1,1-1,1.8v40.2c0,1.6,1.7,2.6,3.1,1.8l33.6-19.5
	c0.6-0.3,1-1,1-1.8v-40.2C74.8,262.9,73,261.9,71.6,262.7z"/>
<path id="XMLID_115_" class="st1" d="M36.3,180.9v40.2c0,0.7,0.4,1.4,1,1.8l34.3,19.9c1.4,0.8,3.1-0.1,3.1-1.8v-36.5
	c0-0.7-0.4-1.4-1-1.8L36.3,180.9z"/>
<path id="XMLID_114_" class="st0" d="M-10.5,263.6V305c0,0.7,0.4,1.4,1,1.8l35,20.2c1.4,0.8,3.1-0.1,3.1-1.8v-41.4
	c0-0.7-0.4-1.4-1-1.8l-35-20.2C-8.8,261-10.5,262-10.5,263.6z"/>
<path id="XMLID_113_" class="st1" d="M-22.2,260.3l-32.2,18.6c-0.6,0.3-1,1-1,1.8v41.7c0,1.6,1.7,2.6,3.1,1.8l32.2-18.5
	c0.6-0.3,1-1,1-1.8v-41.7C-18.9,260.5-20.8,259.5-22.2,260.3z"/>
<path id="XMLID_112_" class="st1" d="M-7.4,242.3l34.3-19.9c0.6-0.3,1-1,1-1.8v-39.7l-37.5,21.8c-0.6,0.3-1,1-1,1.8v36.2
	C-10.5,242.1-8.8,243.2-7.4,242.3z"/>
<path id="XMLID_111_" class="st1" d="M-18.9,247.9v-36.2c0-1.6-1.7-2.6-3.1-1.8l-32.2,18.6c-0.6,0.3-1,1-1,1.8v36.1
	c0,1.6,1.7,2.6,3.1,1.8l32.2-18.5C-19.4,249.2-18.9,248.6-18.9,247.9z"/>
<path id="XMLID_110_" class="st1" d="M20.6,333.7l-35.5-20.6c-0.6-0.4-1.5-0.4-2.2,0l-31.1,18c-1.3,0.8-1.3,2.7,0,3.4l35.5,20.6
	c0.6,0.4,1.5,0.4,2.2,0l31.2-18C22,336.5,22,334.6,20.6,333.7z"/>
<path id="XMLID_109_" class="st1" d="M30.7,340.8l-31.3,18c-1.3,0.8-1.3,2.7,0,3.4L31,380.5c0.7,0.4,1.5,0.4,2.2,0l31.3-18.1
	c1.3-0.8,1.3-2.7,0-3.4l-31.6-18.3C32.2,340.4,31.4,340.4,30.7,340.8z"/>
<path id="XMLID_108_" class="st1" d="M84.2,250l32.2,18.5c1.4,0.8,3.1-0.2,3.1-1.8v-36.4c0-0.7-0.4-1.4-1-1.8l-32.2-18.6
	c-1.4-0.8-3.1,0.1-3.1,1.8v36.5C83.2,249,83.6,249.6,84.2,250z"/>
<path id="XMLID_107_" class="st1" d="M83.2,262.4v41.1c0,0.7,0.4,1.4,1,1.8l32.2,18.5c1.4,0.8,3.1-0.2,3.1-1.8v-41.1
	c0-0.7-0.4-1.4-1-1.8l-32.2-18.5C85,259.9,83.2,260.9,83.2,262.4z"/>
<path id="XMLID_106_" class="st1" d="M112.7,334.6c1.3-0.8,1.3-2.7,0-3.4l-32.8-19l0.1,0.3l-37,21.4c-1.3,0.8-1.3,2.7,0,3.4
	l31.5,18.2c0.6,0.4,1.5,0.4,2.2,0L112.7,334.6z"/>
<g id="XMLID_55_">
	<path id="XMLID_56_" class="st0" d="M254,272.8c0,7.3-1.1,13.6-3.4,19s-5.5,9.9-9.6,13.4c-4.2,3.6-9.2,6.2-15.2,8
		s-12.7,2.7-20.1,2.7c-3.4,0-7.3-0.1-11.9-0.4c-4.5-0.3-9-0.9-13.3-1.8V232c4.4-0.8,8.9-1.3,13.6-1.6s8.8-0.4,12.2-0.4
		c7.2,0,13.7,0.8,19.5,2.4c5.8,1.6,10.9,4.2,15.1,7.6c4.2,3.5,7.4,7.9,9.7,13.3C252.8,258.8,254,265.3,254,272.8z M199.4,299.5
		c0.9,0.1,1.9,0.1,3.1,0.2c1.2,0,2.6,0.1,4.2,0.1c9.4,0,16.4-2.4,21-7.1c4.6-4.8,6.8-11.3,6.8-19.7c0-8.8-2.2-15.4-6.5-20
		c-4.4-4.5-11.3-6.8-20.7-6.8c-1.3,0-2.6,0-4,0.1c-1.4,0-2.7,0.1-3.9,0.3L199.4,299.5L199.4,299.5z"/>
	<path id="XMLID_59_" class="st0" d="M291.3,249.5c5.3,0,9.8,0.6,13.3,1.8s6.4,2.9,8.5,5.2c2.1,2.3,3.6,5,4.5,8.2
		c0.9,3.2,1.3,6.8,1.3,10.8V313c-2.6,0.6-6.2,1.2-10.8,2c-4.6,0.8-10.2,1.1-16.7,1.1c-4.1,0-7.8-0.4-11.2-1.1
		c-3.3-0.7-6.2-1.9-8.7-3.6c-2.4-1.7-4.3-3.8-5.6-6.5c-1.3-2.7-1.9-5.9-1.9-9.8c0-3.7,0.7-6.9,2.2-9.4c1.5-2.6,3.5-4.6,6-6.2
		c2.5-1.5,5.4-2.6,8.6-3.3c3.2-0.7,6.6-1,10-1c2.3,0,4.4,0.1,6.2,0.3c1.8,0.2,3.3,0.5,4.4,0.8v-1.7c0-3.1-0.9-5.5-2.8-7.4
		s-5.1-2.8-9.7-2.8c-3.1,0-6.1,0.2-9.1,0.7c-3,0.4-5.6,1.1-7.7,1.9l-2.3-14.5c1-0.3,2.4-0.7,3.9-1c1.6-0.4,3.3-0.7,5.1-1
		c1.9-0.3,3.8-0.5,5.9-0.7C287.2,249.6,289.3,249.5,291.3,249.5z M292.8,302.2c1.8,0,3.5,0,5.1-0.1s2.9-0.2,3.9-0.4V288
		c-0.7-0.2-1.8-0.3-3.3-0.5s-2.8-0.2-4-0.2c-1.7,0-3.3,0.1-4.8,0.3c-1.5,0.2-2.8,0.6-3.9,1.1c-1.1,0.6-2,1.3-2.7,2.3
		c-0.6,1-1,2.2-1,3.6c0,2.8,0.9,4.8,2.8,5.9C286.9,301.7,289.5,302.2,292.8,302.2z"/>
	<path id="XMLID_62_" class="st0" d="M334.8,235.3l18-2.9v18.8h21.7v15h-21.7v22.4c0,3.8,0.7,6.8,2,9.1c1.3,2.3,4,3.4,8,3.4
		c1.9,0,3.9-0.2,6-0.5c2.1-0.4,3.9-0.9,5.6-1.5l2.5,14c-2.2,0.9-4.6,1.7-7.3,2.3s-5.9,1-9.8,1c-4.9,0-9-0.7-12.2-2s-5.8-3.2-7.7-5.6
		c-1.9-2.4-3.3-5.3-4.1-8.7c-0.8-3.4-1.1-7.1-1.1-11.3v-53.5L334.8,235.3L334.8,235.3z"/>
	<path id="XMLID_64_" class="st0" d="M409.6,249.5c5.3,0,9.8,0.6,13.3,1.8s6.4,2.9,8.5,5.2c2.1,2.3,3.6,5,4.5,8.2
		c0.9,3.2,1.3,6.8,1.3,10.8V313c-2.6,0.6-6.2,1.2-10.8,2c-4.6,0.8-10.2,1.1-16.7,1.1c-4.1,0-7.8-0.4-11.2-1.1
		c-3.3-0.7-6.2-1.9-8.7-3.6c-2.4-1.7-4.3-3.8-5.6-6.5c-1.3-2.7-1.9-5.9-1.9-9.8c0-3.7,0.7-6.9,2.2-9.4c1.5-2.6,3.5-4.6,6-6.2
		c2.5-1.5,5.4-2.6,8.6-3.3c3.2-0.7,6.6-1,10-1c2.3,0,4.4,0.1,6.2,0.3c1.8,0.2,3.3,0.5,4.4,0.8v-1.7c0-3.1-0.9-5.5-2.8-7.4
		s-5.1-2.8-9.7-2.8c-3.1,0-6.1,0.2-9.1,0.7c-3,0.4-5.6,1.1-7.7,1.9l-2.3-14.5c1-0.3,2.4-0.7,3.9-1c1.6-0.4,3.3-0.7,5.1-1
		c1.9-0.3,3.8-0.5,5.9-0.7C405.4,249.6,407.5,249.5,409.6,249.5z M411,302.2c1.8,0,3.5,0,5.1-0.1s2.9-0.2,3.9-0.4V288
		c-0.7-0.2-1.8-0.3-3.3-0.5s-2.8-0.2-4-0.2c-1.7,0-3.3,0.1-4.8,0.3c-1.5,0.2-2.8,0.6-3.9,1.1c-1.1,0.6-2,1.3-2.7,2.3
		c-0.6,1-1,2.2-1,3.6c0,2.8,0.9,4.8,2.8,5.9C405.1,301.7,407.7,302.2,411,302.2z"/>
	<path id="XMLID_67_" class="st0" d="M482.8,315.9c-4.6,0-9.2-0.1-13.7-0.4c-4.6-0.3-9.3-0.9-14.2-2v-81.3c3.9-0.7,8.1-1.3,12.7-1.6
		c4.6-0.4,8.9-0.5,12.8-0.5c5.3,0,10.2,0.4,14.7,1.1c4.5,0.8,8.3,2.1,11.6,3.9c3.2,1.9,5.7,4.3,7.6,7.3s2.7,6.8,2.7,11.2
		c0,6.7-3.2,12-9.7,15.9c5.3,2,9,4.8,10.9,8.2c1.9,3.5,2.9,7.4,2.9,11.7c0,8.8-3.2,15.4-9.6,19.8C505,313.7,495.4,315.9,482.8,315.9
		z M473.2,263.9h9.2c5.8,0,10-0.7,12.5-2.2s3.8-3.9,3.8-7.2c0-3.4-1.3-5.8-3.9-7.1c-2.6-1.4-6.4-2.1-11.4-2.1c-1.6,0-3.3,0-5.2,0.1
		c-1.9,0-3.5,0.1-5,0.3V263.9L473.2,263.9z M473.2,278.3v21.6c1.4,0.2,2.9,0.3,4.5,0.4s3.4,0.1,5.3,0.1c5.6,0,10.2-0.8,13.7-2.4
		s5.2-4.6,5.2-9c0-3.9-1.5-6.6-4.4-8.3c-2.9-1.7-7.1-2.5-12.5-2.5L473.2,278.3L473.2,278.3z"/>
	<path id="XMLID_71_" class="st0" d="M560.3,316c-5.2-0.1-9.5-0.6-12.8-1.7c-3.3-1-5.8-2.5-7.7-4.4s-3.2-4.2-3.9-6.9
		c-0.7-2.7-1-5.7-1-9.1v-70.1l18-2.9v69.3c0,1.6,0.1,3.1,0.4,4.4c0.2,1.3,0.7,2.4,1.4,3.3s1.7,1.6,3,2.2s3,0.9,5.2,1.1L560.3,316z"
		/>
	<path id="XMLID_73_" class="st0" d="M632.7,282.9c0,5-0.7,9.6-2.2,13.7c-1.5,4.2-3.6,7.7-6.3,10.6s-6,5.2-9.9,6.8
		c-3.8,1.6-8.1,2.4-12.9,2.4c-4.7,0-8.9-0.8-12.8-2.4c-3.8-1.6-7.1-3.9-9.9-6.8c-2.7-2.9-4.9-6.5-6.4-10.6
		c-1.5-4.2-2.3-8.7-2.3-13.7s0.8-9.6,2.4-13.7c1.6-4.1,3.8-7.6,6.5-10.5c2.8-2.9,6.1-5.2,9.9-6.8c3.8-1.6,8-2.4,12.5-2.4
		c4.6,0,8.8,0.8,12.6,2.4c3.8,1.6,7.1,3.9,9.9,6.8c2.7,2.9,4.9,6.4,6.4,10.5C631.9,273.3,632.7,277.9,632.7,282.9z M614.3,282.9
		c0-5.6-1.1-9.9-3.3-13.1s-5.4-4.8-9.5-4.8s-7.3,1.6-9.6,4.8s-3.4,7.6-3.4,13.1c0,5.6,1.1,10,3.4,13.2c2.3,3.3,5.4,4.9,9.6,4.9
		c4.1,0,7.3-1.6,9.5-4.9C613.2,292.9,614.3,288.4,614.3,282.9z"/>
	<path id="XMLID_76_" class="st0" d="M643.6,283c0-4.6,0.7-8.9,2.2-13s3.6-7.6,6.5-10.6c2.8-3,6.3-5.4,10.3-7.2s8.6-2.7,13.8-2.7
		c3.4,0,6.5,0.3,9.3,0.9c2.8,0.6,5.6,1.5,8.2,2.6l-3.8,14.4c-1.7-0.6-3.6-1.2-5.6-1.7c-2-0.5-4.3-0.7-6.8-0.7c-5.3,0-9.3,1.7-11.9,5
		c-2.6,3.3-3.9,7.7-3.9,13.1c0,5.7,1.2,10.2,3.7,13.3s6.8,4.7,12.9,4.7c2.2,0,4.5-0.2,7-0.6s4.8-1,6.9-1.9l2.5,14.8
		c-2.1,0.9-4.7,1.7-7.9,2.3c-3.1,0.6-6.6,1-10.4,1c-5.8,0-10.8-0.9-15-2.6s-7.6-4.1-10.3-7.1s-4.7-6.5-5.9-10.6
		C644.2,292.2,643.6,287.8,643.6,283z"/>
	<path id="XMLID_78_" class="st0" d="M725.1,274c1.8-1.9,3.6-3.9,5.5-6s3.7-4.1,5.5-6.2c1.8-2,3.4-4,5-5.8c1.6-1.8,2.9-3.4,4-4.8
		h21.4c-4.3,4.9-8.5,9.6-12.5,14.1c-4.1,4.5-8.5,9.1-13.4,13.8c2.4,2.2,4.9,4.8,7.5,7.8s5.1,6.2,7.5,9.4c2.4,3.2,4.6,6.5,6.7,9.7
		c2,3.2,3.7,6.2,5.1,8.8h-20.7c-1.3-2.1-2.8-4.4-4.4-7c-1.7-2.5-3.4-5.1-5.3-7.6c-1.9-2.5-3.8-5-5.9-7.3c-2.1-2.3-4.1-4.3-6.1-5.9
		v27.9h-18v-91l18-2.9v53H725.1z"/>
</g>
</svg>
