<?xml version="1.0" encoding="utf-8"?>
<!-- Generator: Adobe Illustrator 19.0.0, SVG Export Plug-In . SVG Version: 6.00 Build 0)  -->
<svg version="1.1" id="Layer_1" xmlns="http://www.w3.org/2000/svg" xmlns:xlink="http://www.w3.org/1999/xlink" x="0px" y="0px"
	 viewBox="0 0 290 300" style="enable-background:new 0 0 290 300;" xml:space="preserve">
<style type="text/css">
	.st0{fill:#FFFFFF;}
	.st1{fill:#C9C9C9;}
</style>
<g id="XMLID_1_">
	<path id="XMLID_150_" class="st0" d="M147.5,140.3l51.1-30.6c1.9-1.2,1.9-4,0-5.1L146,73.1c-0.9-0.6-2.1-0.6-3.1,0l-51.1,30.6
		c-1.9,1.2-1.9,4,0,5.1l52.7,31.5C145.4,140.8,146.6,140.8,147.5,140.3z"/>
	<path id="XMLID_149_" class="st0" d="M201.4,121.9l-48,28.9c-0.9,0.5-1.5,1.5-1.5,2.6V213c0,2.3,2.5,3.8,4.5,2.6l48-28.9
		c0.9-0.5,1.5-1.5,1.5-2.6v-59.5C205.9,122.2,203.4,120.7,201.4,121.9z"/>
	<path id="XMLID_129_" class="st1" d="M150.9,6.2v54.1c0,1.1,0.6,2,1.5,2.6l49,29.4c2,1.2,4.5-0.2,4.5-2.6v-54c0-1.1-0.6-2-1.5-2.6
		l-49-29.5C153.5,2.4,150.9,3.9,150.9,6.2z"/>
	<path id="XMLID_128_" class="st0" d="M83.9,123.2v61.3c0,1.1,0.6,2,1.5,2.6l50,29.9c2,1.2,4.5-0.2,4.5-2.6v-61.3
		c0-1.1-0.6-2-1.5-2.6l-50-29.9C86.5,119.4,83.9,120.9,83.9,123.2z"/>
	<path id="XMLID_127_" class="st1" d="M67.4,118.4l-46,27.4c-0.9,0.5-1.5,1.5-1.5,2.6V210c0,2.3,2.5,3.8,4.5,2.6l46-27.4
		c0.9-0.5,1.5-1.5,1.5-2.6v-61.7C71.9,118.6,69.4,117.2,67.4,118.4z"/>
	<path id="XMLID_126_" class="st1" d="M88.5,91.8l49-29.4c0.9-0.5,1.5-1.5,1.5-2.6V6.2c0-2.3-2.5-3.8-4.5-2.6l-49,29.5
		c-0.9,0.5-1.5,1.5-1.5,2.6v53.5C83.9,91.5,86.5,93,88.5,91.8z"/>
	<path id="XMLID_125_" class="st1" d="M71.9,100V46.5c0-2.3-2.5-3.8-4.5-2.6l-46,27.5c-0.9,0.5-1.5,1.5-1.5,2.6v53.4
		c0,2.3,2.5,3.8,4.5,2.6l46-27.4C71.4,102,71.9,101,71.9,100z"/>
	<path id="XMLID_124_" class="st1" d="M128.5,227l-50.8-30.4c-0.9-0.6-2.1-0.6-3.1,0l-44.5,26.6c-1.9,1.2-1.9,4,0,5.1l50.7,30.4
		c0.9,0.6,2.1,0.6,3.1,0l44.6-26.7C130.5,231,130.5,228.2,128.5,227z"/>
	<path id="XMLID_123_" class="st1" d="M143,237.5l-44.7,26.7c-1.9,1.2-1.9,4,0,5.1l45.1,27c1,0.6,2.1,0.6,3.1,0l44.7-26.8
		c1.9-1.2,1.9-4,0-5.1l-45.1-27C145.1,236.9,143.9,236.9,143,237.5z"/>
	<path id="XMLID_122_" class="st1" d="M219.4,103.1l46,27.4c2,1.2,4.5-0.3,4.5-2.6V74c0-1.1-0.6-2-1.5-2.6l-46-27.5
		c-2-1.2-4.5,0.2-4.5,2.6v54C217.9,101.6,218.5,102.6,219.4,103.1z"/>
	<path id="XMLID_120_" class="st1" d="M217.9,121.5v60.8c0,1.1,0.6,2,1.5,2.6l46,27.4c2,1.2,4.5-0.3,4.5-2.6v-60.8
		c0-1.1-0.6-2-1.5-2.6l-46-27.4C220.5,117.7,217.9,119.2,217.9,121.5z"/>
	<path id="XMLID_92_" class="st1" d="M260.1,228.2c1.9-1.2,1.9-4,0-5.1L213.2,195l0.2,0.4L160.5,227c-1.9,1.2-1.9,4,0,5.1l45,26.9
		c0.9,0.6,2.1,0.6,3.1,0L260.1,228.2z"/>
</g>
</svg>
