<?xml version="1.0" encoding="utf-8"?>
<!-- Generator: Adobe Illustrator 19.0.0, SVG Export Plug-In . SVG Version: 6.00 Build 0)  -->
<svg version="1.1" id="Layer_1" xmlns="http://www.w3.org/2000/svg" xmlns:xlink="http://www.w3.org/1999/xlink" x="0px" y="0px"
	 viewBox="167 197.5 620 140" style="enable-background:new 167 197.5 620 140;" xml:space="preserve">
<style type="text/css">
	.st0{fill:#FFB301;}
</style>
<g id="XMLID_55_">
	<path id="XMLID_56_" class="st0" d="M258.9,271.5c0,7.3-1.1,13.6-3.4,19s-5.5,9.9-9.6,13.4c-4.2,3.6-9.2,6.2-15.2,8
		c-6,1.8-12.7,2.7-20.1,2.7c-3.4,0-7.3-0.1-11.9-0.4c-4.5-0.3-9-0.9-13.3-1.8v-81.7c4.4-0.8,8.9-1.3,13.6-1.6
		c4.7-0.3,8.8-0.4,12.2-0.4c7.2,0,13.7,0.8,19.5,2.4s10.9,4.2,15.1,7.6c4.2,3.5,7.4,7.9,9.7,13.3C257.7,257.5,258.9,264,258.9,271.5
		z M204.3,298.2c0.9,0.1,1.9,0.1,3.1,0.2c1.2,0,2.6,0.1,4.2,0.1c9.4,0,16.4-2.4,21-7.1c4.6-4.8,6.8-11.3,6.8-19.7
		c0-8.8-2.2-15.4-6.5-20c-4.4-4.5-11.3-6.8-20.7-6.8c-1.3,0-2.6,0-4,0.1c-1.4,0-2.7,0.1-3.9,0.3V298.2z"/>
	<path id="XMLID_59_" class="st0" d="M296.2,248.2c5.3,0,9.8,0.6,13.3,1.8c3.5,1.2,6.4,2.9,8.5,5.2c2.1,2.3,3.6,5,4.5,8.2
		c0.9,3.2,1.3,6.8,1.3,10.8v37.5c-2.6,0.6-6.2,1.2-10.8,2c-4.6,0.8-10.2,1.1-16.7,1.1c-4.1,0-7.8-0.4-11.2-1.1
		c-3.3-0.7-6.2-1.9-8.7-3.6c-2.4-1.7-4.3-3.8-5.6-6.5c-1.3-2.7-1.9-5.9-1.9-9.8c0-3.7,0.7-6.9,2.2-9.4c1.5-2.6,3.5-4.6,6-6.2
		c2.5-1.5,5.4-2.6,8.6-3.3c3.2-0.7,6.6-1,10-1c2.3,0,4.4,0.1,6.2,0.3c1.8,0.2,3.3,0.5,4.4,0.8v-1.7c0-3.1-0.9-5.5-2.8-7.4
		s-5.1-2.8-9.7-2.8c-3.1,0-6.1,0.2-9.1,0.7c-3,0.4-5.6,1.1-7.7,1.9l-2.3-14.5c1-0.3,2.4-0.7,3.9-1c1.6-0.4,3.3-0.7,5.1-1
		c1.9-0.3,3.8-0.5,5.9-0.7C292.1,248.3,294.2,248.2,296.2,248.2z M297.7,300.9c1.8,0,3.5,0,5.1-0.1s2.9-0.2,3.9-0.4v-13.7
		c-0.7-0.2-1.8-0.3-3.3-0.5c-1.5-0.2-2.8-0.2-4-0.2c-1.7,0-3.3,0.1-4.8,0.3c-1.5,0.2-2.8,0.6-3.9,1.1c-1.1,0.6-2,1.3-2.7,2.3
		c-0.6,1-1,2.2-1,3.6c0,2.8,0.9,4.8,2.8,5.9C291.8,300.4,294.4,300.9,297.7,300.9z"/>
	<path id="XMLID_62_" class="st0" d="M339.7,234l18-2.9v18.8h21.7v15h-21.7v22.4c0,3.8,0.7,6.8,2,9.1c1.3,2.3,4,3.4,8,3.4
		c1.9,0,3.9-0.2,6-0.5c2.1-0.4,3.9-0.9,5.6-1.5l2.5,14c-2.2,0.9-4.6,1.7-7.3,2.3s-5.9,1-9.8,1c-4.9,0-9-0.7-12.2-2
		c-3.2-1.3-5.8-3.2-7.7-5.6c-1.9-2.4-3.3-5.3-4.1-8.7c-0.8-3.4-1.1-7.1-1.1-11.3V234H339.7z"/>
	<path id="XMLID_64_" class="st0" d="M414.5,248.2c5.3,0,9.8,0.6,13.3,1.8c3.5,1.2,6.4,2.9,8.5,5.2c2.1,2.3,3.6,5,4.5,8.2
		c0.9,3.2,1.3,6.8,1.3,10.8v37.5c-2.6,0.6-6.2,1.2-10.8,2c-4.6,0.8-10.2,1.1-16.7,1.1c-4.1,0-7.8-0.4-11.2-1.1
		c-3.3-0.7-6.2-1.9-8.7-3.6c-2.4-1.7-4.3-3.8-5.6-6.5c-1.3-2.7-1.9-5.9-1.9-9.8c0-3.7,0.7-6.9,2.2-9.4c1.5-2.6,3.5-4.6,6-6.2
		c2.5-1.5,5.4-2.6,8.6-3.3c3.2-0.7,6.6-1,10-1c2.3,0,4.4,0.1,6.2,0.3c1.8,0.2,3.3,0.5,4.4,0.8v-1.7c0-3.1-0.9-5.5-2.8-7.4
		c-1.9-1.9-5.1-2.8-9.7-2.8c-3.1,0-6.1,0.2-9.1,0.7c-3,0.4-5.6,1.1-7.7,1.9l-2.3-14.5c1-0.3,2.4-0.7,3.9-1c1.6-0.4,3.3-0.7,5.1-1
		c1.9-0.3,3.8-0.5,5.9-0.7C410.3,248.3,412.4,248.2,414.5,248.2z M415.9,300.9c1.8,0,3.5,0,5.1-0.1s2.9-0.2,3.9-0.4v-13.7
		c-0.7-0.2-1.8-0.3-3.3-0.5c-1.5-0.2-2.8-0.2-4-0.2c-1.7,0-3.3,0.1-4.8,0.3c-1.5,0.2-2.8,0.6-3.9,1.1c-1.1,0.6-2,1.3-2.7,2.3
		c-0.6,1-1,2.2-1,3.6c0,2.8,0.9,4.8,2.8,5.9C410,300.4,412.6,300.9,415.9,300.9z"/>
	<path id="XMLID_67_" class="st0" d="M487.7,314.6c-4.6,0-9.2-0.1-13.7-0.4c-4.6-0.3-9.3-0.9-14.2-2v-81.3c3.9-0.7,8.1-1.3,12.7-1.6
		c4.6-0.4,8.9-0.5,12.8-0.5c5.3,0,10.2,0.4,14.7,1.1c4.5,0.8,8.3,2.1,11.6,3.9c3.2,1.9,5.7,4.3,7.6,7.3c1.9,3,2.7,6.8,2.7,11.2
		c0,6.7-3.2,12-9.7,15.9c5.3,2,9,4.8,10.9,8.2c1.9,3.5,2.9,7.4,2.9,11.7c0,8.8-3.2,15.4-9.6,19.8
		C509.9,312.4,500.3,314.6,487.7,314.6z M478.1,262.6h9.2c5.8,0,10-0.7,12.5-2.2s3.8-3.9,3.8-7.2c0-3.4-1.3-5.8-3.9-7.1
		c-2.6-1.4-6.4-2.1-11.4-2.1c-1.6,0-3.3,0-5.2,0.1c-1.9,0-3.5,0.1-5,0.3L478.1,262.6L478.1,262.6z M478.1,277v21.6
		c1.4,0.2,2.9,0.3,4.5,0.4c1.6,0.1,3.4,0.1,5.3,0.1c5.6,0,10.2-0.8,13.7-2.4s5.2-4.6,5.2-9c0-3.9-1.5-6.6-4.4-8.3
		c-2.9-1.7-7.1-2.5-12.5-2.5L478.1,277L478.1,277z"/>
	<path id="XMLID_71_" class="st0" d="M565.2,314.7c-5.2-0.1-9.5-0.6-12.8-1.7c-3.3-1-5.8-2.5-7.7-4.4s-3.2-4.2-3.9-6.9
		c-0.7-2.7-1-5.7-1-9.1v-70.1l18-2.9v69.3c0,1.6,0.1,3.1,0.4,4.4c0.2,1.3,0.7,2.4,1.4,3.3c0.7,0.9,1.7,1.6,3,2.2
		c1.3,0.6,3,0.9,5.2,1.1L565.2,314.7z"/>
	<path id="XMLID_73_" class="st0" d="M637.6,281.6c0,5-0.7,9.6-2.2,13.7c-1.5,4.2-3.6,7.7-6.3,10.6c-2.7,2.9-6,5.2-9.9,6.8
		c-3.8,1.6-8.1,2.4-12.9,2.4c-4.7,0-8.9-0.8-12.8-2.4c-3.8-1.6-7.1-3.9-9.9-6.8c-2.7-2.9-4.9-6.5-6.4-10.6
		c-1.5-4.2-2.3-8.7-2.3-13.7s0.8-9.6,2.4-13.7c1.6-4.1,3.8-7.6,6.5-10.5c2.8-2.9,6.1-5.2,9.9-6.8c3.8-1.6,8-2.4,12.5-2.4
		c4.6,0,8.8,0.8,12.6,2.4c3.8,1.6,7.1,3.9,9.9,6.8c2.7,2.9,4.9,6.4,6.4,10.5C636.8,272,637.6,276.6,637.6,281.6z M619.2,281.6
		c0-5.6-1.1-9.9-3.3-13.1c-2.2-3.2-5.4-4.8-9.5-4.8s-7.3,1.6-9.6,4.8c-2.3,3.2-3.4,7.6-3.4,13.1c0,5.6,1.1,10,3.4,13.2
		c2.3,3.3,5.4,4.9,9.6,4.9c4.1,0,7.3-1.6,9.5-4.9C618.1,291.6,619.2,287.1,619.2,281.6z"/>
	<path id="XMLID_76_" class="st0" d="M648.5,281.7c0-4.6,0.7-8.9,2.2-13s3.6-7.6,6.5-10.6c2.8-3,6.3-5.4,10.3-7.2
		c4-1.8,8.6-2.7,13.8-2.7c3.4,0,6.5,0.3,9.3,0.9c2.8,0.6,5.6,1.5,8.2,2.6l-3.8,14.4c-1.7-0.6-3.6-1.2-5.6-1.7s-4.3-0.7-6.8-0.7
		c-5.3,0-9.3,1.7-11.9,5c-2.6,3.3-3.9,7.7-3.9,13.1c0,5.7,1.2,10.2,3.7,13.3s6.8,4.7,12.9,4.7c2.2,0,4.5-0.2,7-0.6
		c2.5-0.4,4.8-1,6.9-1.9l2.5,14.8c-2.1,0.9-4.7,1.7-7.9,2.3c-3.1,0.6-6.6,1-10.4,1c-5.8,0-10.8-0.9-15-2.6
		c-4.2-1.7-7.6-4.1-10.3-7.1s-4.7-6.5-5.9-10.6C649.1,290.9,648.5,286.5,648.5,281.7z"/>
	<path id="XMLID_78_" class="st0" d="M730,272.7c1.8-1.9,3.6-3.9,5.5-6s3.7-4.1,5.5-6.2c1.8-2,3.4-4,5-5.8c1.6-1.8,2.9-3.4,4-4.8
		h21.4c-4.3,4.9-8.5,9.6-12.5,14.1c-4.1,4.5-8.5,9.1-13.4,13.8c2.4,2.2,4.9,4.8,7.5,7.8s5.1,6.2,7.5,9.4c2.4,3.2,4.6,6.5,6.7,9.7
		c2,3.2,3.7,6.2,5.1,8.8h-20.7c-1.3-2.1-2.8-4.4-4.4-7c-1.7-2.5-3.4-5.1-5.3-7.6c-1.9-2.5-3.8-5-5.9-7.3c-2.1-2.3-4.1-4.3-6.1-5.9
		v27.9h-18v-91l18-2.9v53H730z"/>
</g>
</svg>
